<?xml version="1.0"?>
<svg xmlns="http://www.w3.org/2000/svg" xmlns:xlink="http://www.w3.org/1999/xlink" xmlns:svgjs="http://svgjs.com/svgjs" version="1.1" width="512" height="512" x="0" y="0" viewBox="0 0 512 512" style="enable-background:new 0 0 512 512" xml:space="preserve" class=""><g><path xmlns="http://www.w3.org/2000/svg" d="m512 256c0 141.386719-114.613281 256-256 256s-256-114.613281-256-256 114.613281-256 256-256 256 114.613281 256 256zm0 0" fill="#57545c" data-original="#57545c" style="" class=""/><path xmlns="http://www.w3.org/2000/svg" d="m512 256c0-12.808594-.953125-25.390625-2.769531-37.695312l-79.085938-79.085938s-19.242187 8.652344-49.808593 20.445312l-124.335938-127.164062s-1.609375 50.007812-19.109375 100.738281c-7.3125 21.195313-39.40625 27.867188-40.109375 54.5-52.460938-41.871093-116.035156 10.007813-76.902344 63.585938-43.105468-1.84375-67.800781 20.636719-52.824218 35.210937l57.609374 57.207032c-17.015624 15.640624-29.238281 27.238281-29.238281 27.238281l140.214844 140.214843c6.714844.527344 13.503906.804688 20.359375.804688 141.386719 0 256-114.613281 256-256zm0 0" fill="#3a383f" data-original="#3a383f" style=""/><g xmlns="http://www.w3.org/2000/svg" fill="#00ca76"><path d="m268.21875 337.386719h-24.4375l-6.890625 130.945312h38.21875zm0 0" fill="#1976d2" data-original="#00ca76" style="" class=""/><path d="m275.109375 468.335938h-19.109375v-130.949219h12.21875l.722656 13.589843zm0 0" fill="#1976d2" data-original="#00ca76" style="" class=""/><path d="m256 311.367188c-104.894531-34.308594-160.574219 59.613281-160.574219 59.613281s91.023438 44.324219 160.574219-32.785157c69.550781 77.109376 160.574219 32.785157 160.574219 32.785157s-55.679688-93.921875-160.574219-59.613281zm0 0" fill="#1976d2" data-original="#00ca76" style="" class=""/></g><path xmlns="http://www.w3.org/2000/svg" d="m416.570312 370.976562s-80.261718 39.089844-147.628906-20c-4.382812-3.828124-8.703125-8.078124-12.941406-12.78125v-26.828124c10.320312-3.378907 20.160156-5.511719 29.519531-6.609376 85.789063-10.128906 131.050781 66.21875 131.050781 66.21875zm0 0" fill="#0856a5" data-original="#00a863" style="" class=""/><path xmlns="http://www.w3.org/2000/svg" d="m44.652344 260.332031s69.316406 108.675781 211.820312 77.933594l6.851563-17.070313c-87.984375-105.054687-218.671875-60.863281-218.671875-60.863281zm0 0" fill="#115293" data-original="#00ec88" style="" class=""/><path xmlns="http://www.w3.org/2000/svg" d="m467.351562 260.335938s-69.171874 108.429687-211.351562 78.03125v-25.46875c87.71875-94.371094 211.351562-52.5625 211.351562-52.5625zm0 0" fill="#1976d2" data-original="#00ca76" style="" class=""/><path xmlns="http://www.w3.org/2000/svg" d="m81.855469 139.21875s-2.898438 152.433594 165.136719 190.484375l18.753906-15.058594c-18.839844-157.863281-183.890625-175.425781-183.890625-175.425781zm0 0" fill="#1976d2" data-original="#00ca76" style="" class=""/><path xmlns="http://www.w3.org/2000/svg" d="m430.144531 139.21875s2.898438 152.433594-165.136719 190.484375l-18.753906-15.058594c18.835938-157.863281 183.890625-175.425781 183.890625-175.425781zm0 0" fill="#0856a5" data-original="#00a863" style="" class=""/><path xmlns="http://www.w3.org/2000/svg" d="m256 32.5s-123.679688 141.132812-13.8125 297.207031h27.621094c109.871094-156.074219-13.808594-297.207031-13.808594-297.207031zm0 0" fill="#115293" data-original="#00ec88" style="" class=""/><path xmlns="http://www.w3.org/2000/svg" d="m285.519531 304.757812c-4.597656 8.257813-9.820312 16.589844-15.710937 24.949219h-13.808594v-297.210937s110.78125 126.410156 29.519531 272.261718zm0 0" fill="#1976d2" data-original="#00ca76" style="" class=""/></g></svg>
